PathFileType	4	(X/Y/Z)	/Users/niels/Desktop/University/Third Semester/Perception and Action/Exam/Gymnastics Motion Tracking/Code for Gym Tracking/Analyzed Data/Webcam_Backflip/id8_2_baseline_Sports2D/id8_2_baseline_Sports2D_px_person00.trc
DataRate	CameraRate	NumFrames	NumMarkers	Units	OrigDataRate	OrigDataStartFrame	OrigNumFrames
29.81132075471698	29.81132075471698	11	22	m	29.81132075471698	99	159
Frame#	Time	Hip			RHip			RKnee			RAnkle			RBigToe			RSmallToe			RHeel			LHip			LKnee			LAnkle			LBigToe			LSmallToe			LHeel			Neck			Head			Nose			RShoulder			RElbow			RWrist			LShoulder			LElbow			LWrist		
		X1	Y1	Z1	X2	Y2	Z2	X3	Y3	Z3	X4	Y4	Z4	X5	Y5	Z5	X6	Y6	Z6	X7	Y7	Z7	X8	Y8	Z8	X9	Y9	Z9	X10	Y10	Z10	X11	Y11	Z11	X12	Y12	Z12	X13	Y13	Z13	X14	Y14	Z14	X15	Y15	Z15	X16	Y16	Z16	X17	Y17	Z17	X18	Y18	Z18	X19	Y19	Z19	X20	Y20	Z20	X21	Y21	Z21	X22	Y22	Z22
99	3.320886075949367	0.9580506740001551	-0.5746592106310414	0.0	0.9614212628341627	-0.5754732995556183	0.0	0.9535597565081959	-0.675683739842969	0.0	0.9372538030469277	-0.7758198921360332	0.0	0.9693146829934081	-0.7908404242474886	0.0	0.9593362662926673	-0.7971042778148794	0.0	0.9277345372546237	-0.7893064844909365	0.0	0.9529629776983607	-0.5724611719846997	0.0	0.9518181096909489	-0.6733673251964274	0.0	0.9396367827099874	-0.7672272255954333	0.0	0.9752553748606202	-0.7839766404954718	0.0	0.968616447119359	-0.7799724181453959	0.0	0.9298394580493407	-0.776198067154044	0.0	0.9546502843408036	-0.44456763516706166	0.0	0.9502487049932639	-0.38101368113617823	0.0	0.9672960400267463	-0.4070684616993971	0.0	0.9533069783707216	-0.4460534460626354	0.0	0.9757432848892517	-0.37779405026052343	0.0	0.9807166798208752	-0.3198877461380877	0.0	0.9520746031849081	-0.44466195930804847	0.0	0.9725171888623846	-0.38466693178992245	0.0	0.9740425437841697	-0.32663354989289284	0.0
100	3.354430379746835	0.9587330541405155	-0.5808170221830229	0.0	0.961850531373576	-0.5817484021155673	0.0	0.9536031627154296	-0.6815388374009197	0.0	0.9372131592463446	-0.7814067622361222	0.0	0.9689306861489725	-0.7967033736019734	0.0	0.9591110928052455	-0.8025484306560026	0.0	0.9278929565185275	-0.7950489274048562	0.0	0.9537368484310366	-0.5787746173391369	0.0	0.9518150841658964	-0.6793154229009991	0.0	0.9394676763250769	-0.7731571859505675	0.0	0.974580462474675	-0.7906325977031863	0.0	0.9678068823288971	-0.7865264590131473	0.0	0.9298595362703843	-0.7819883076317108	0.0	0.9547068368115815	-0.4508440839228834	0.0	0.9505988124238823	-0.38667126797024415	0.0	0.9678271658010774	-0.4132908083337209	0.0	0.953338703455661	-0.4531162496812347	0.0	0.9757217088057608	-0.38556868922773824	0.0	0.9799245505185022	-0.3280314709392118	0.0	0.9525231281994286	-0.45100125590898715	0.0	0.9731120606042986	-0.3922945998121639	0.0	0.9740562810037908	-0.3347614997283562	0.0
101	3.3879746835443036	0.9591468649487898	-0.5869505299058282	0.0	0.9619370851661716	-0.5878180704872503	0.0	0.9536495460864212	-0.6873589803207577	0.0	0.9373118774972081	-0.7866864148300019	0.0	0.9686439106459972	-0.8025075820964254	0.0	0.9590067914677641	-0.8078237814355554	0.0	0.9282644860693677	-0.8004875513233229	0.0	0.9545239248780913	-0.5849409347629922	0.0	0.9517387871634418	-0.6854887412109362	0.0	0.9393736526316862	-0.7789400238364881	0.0	0.9737234360001774	-0.7970865809595912	0.0	0.9670063474539468	-0.7929418386295441	0.0	0.9298872561416824	-0.7877849233424971	0.0	0.9547700350407036	-0.4568707564999915	0.0	0.9512506466102009	-0.39196386194785093	0.0	0.9683677372539353	-0.41940886772335273	0.0	0.953475721452748	-0.4602052887987306	0.0	0.976405410683937	-0.3939427944563673	0.0	0.9803328039608646	-0.33713487584935603	0.0	0.9529184612030216	-0.4573510173905218	0.0	0.9739410463130945	-0.400120055388415	0.0	0.9748138759169819	-0.34336131862746894	0.0
102	3.421518987341772	0.959294076821909	-0.592043991599058	0.0	0.9616983771966783	-0.5926922972404899	0.0	0.9536682828091914	-0.6922732211030711	0.0	0.9375244829105354	-0.790910363840298	0.0	0.9686448261613613	-0.8074734066579213	0.0	0.9592270654411368	-0.8122235881486458	0.0	0.9287722018198876	-0.8048977291945467	0.0	0.9553140409063912	-0.5899746665228146	0.0	0.951704537446344	-0.690838043046616	0.0	0.9393396163447161	-0.7837163198543826	0.0	0.9729233053276469	-0.8024126540916852	0.0	0.9664112733019655	-0.7983356751280257	0.0	0.9297655925985925	-0.7927212717422147	0.0	0.9548684385912389	-0.46178741010985525	0.0	0.9521510833323106	-0.3962586719646994	0.0	0.9689798198775502	-0.4246185793661023	0.0	0.9537718790930382	-0.46641170382820973	0.0	0.9779930453992536	-0.40237853473197854	0.0	0.9822926223174298	-0.34686485230263414	0.0	0.9532118120205573	-0.46288277454097027	0.0	0.9752082768067174	-0.4076044895195688	0.0	0.9766600021386882	-0.3521198029234293	0.0
103	3.4550632911392403	0.9592187099306511	-0.5953263518222413	0.0	0.9611826375688665	-0.5955815754252363	0.0	0.9535735418054201	-0.6956014296069686	0.0	0.9377098818613895	-0.7934736032079108	0.0	0.9690970932229233	-0.8109112196670939	0.0	0.9599532345754551	-0.8151106825453199	0.0	0.9292765094963603	-0.8076960683765512	0.0	0.956150469543248	-0.5930790314689163	0.0	0.9518000667011702	-0.694521431422793	0.0	0.9393711092711176	-0.7868190025155509	0.0	0.972450001232649	-0.8059386411174733	0.0	0.966202423008378	-0.8020398847564437	0.0	0.9294896043627513	-0.7960899072689565	0.0	0.9550571604886717	-0.46493759982713945	0.0	0.953227504458363	-0.399137729626921	0.0	0.969822025063144	-0.4283096669715529	0.0	0.9542400010762757	-0.47102928075786754	0.0	0.9806193633460082	-0.41071263509595884	0.0	0.9859694240167298	-0.35739733770651444	0.0	0.9533959639421375	-0.4669554689010921	0.0	0.9770926206575278	-0.4145953255589595	0.0	0.97974072598872	-0.3613569185878897	0.0
104	3.488607594936709	0.9590013608360469	-0.5963915815834905	0.0	0.9604889082683541	-0.5960558654272108	0.0	0.9532630119602694	-0.6969248163146544	0.0	0.937726581739953	-0.7940101299640172	0.0	0.9700914031649548	-0.8123523458117695	0.0	0.9612375974111957	-0.8160207405691097	0.0	0.9296733849171609	-0.8084940488987765	0.0	0.9570567645987166	-0.5938203423025435	0.0	0.9520080959277899	-0.6960858131168289	0.0	0.9395232067352134	-0.7878663622530749	0.0	0.9725296831674792	-0.8073027452839453	0.0	0.9665497172756251	-0.8036714850875739	0.0	0.9292698336850878	-0.7974890878705077	0.0	0.9554280869075875	-0.465911700804022	0.0	0.9544794731782557	-0.400274597846962	0.0	0.9711643459564432	-0.430122789092946	0.0	0.9548329905088473	-0.47357288684337706	0.0	0.984316192173437	-0.41915020350416055	0.0	0.9912280233350805	-0.3695567190656145	0.0	0.953509132599488	-0.4691785456114637	0.0	0.9796914693602726	-0.4213461912586918	0.0	0.9839208989352788	-0.37204990297000945	0.0
105	3.522151898734177	0.9587432604059596	-0.5951576167957177	0.0	0.959765692509458	-0.5940930000003547	0.0	0.9527098685257577	-0.6960621602543228	0.0	0.937541495989444	-0.7924563089142318	0.0	0.9716015087219999	-0.8116069155491226	0.0	0.9629571174414743	-0.8147494670054828	0.0	0.9299664884694039	-0.8071576450509677	0.0	0.9579664919045336	-0.592164845188265	0.0	0.952225780935371	-0.6954066304986095	0.0	0.9398483010663499	-0.7867690824647425	0.0	0.973294682475294	-0.8064253221304757	0.0	0.967537834093568	-0.8031231633341674	0.0	0.9293988534602987	-0.7967978476719736	0.0	0.956075508396158	-0.46454878936193916	0.0	0.9560254925526747	-0.39930145254855337	0.0	0.9733152207466196	-0.4298597754201199	0.0	0.9554669782624186	-0.47381030719883926	0.0	0.988914538316028	-0.42822453964708995	0.0	0.997480336480414	-0.38464433032374873	0.0	0.9536107074648904	-0.4693934839720917	0.0	0.9829454444553138	-0.42847465146783204	0.0	0.9887707840960984	-0.38560348897286006	0.0
106	3.5556962025316454	0.9585194090633988	-0.5918486640742492	0.0	0.9591639111136909	-0.5900937276916116	0.0	0.9520339040547481	-0.6931126225225579	0.0	0.9372629888116083	-0.7890761155466632	0.0	0.973435397911287	-0.8088003706117377	0.0	0.964831158584738	-0.8114245644409126	0.0	0.9302598518420293	-0.803869037925536	0.0	0.9587144703408913	-0.5884598120533865	0.0	0.9523382530733951	-0.6926128165551354	0.0	0.9403000018635149	-0.7837177392231396	0.0	0.9746801370302182	-0.8035038871113097	0.0	0.9690517782678982	-0.8005349615365812	0.0	0.9300071144167129	-0.794112211375946	0.0	0.9570346301746836	-0.4609902732400346	0.0	0.957982349508903	-0.3959701420560937	0.0	0.976347961090235	-0.4274660757304174	0.0	0.9560876635834551	-0.47182314972801154	0.0	0.9938358224572263	-0.438590009687369	0.0	1.0036284472875874	-0.40388479448434084	0.0	0.9537626679059176	-0.46767912475484874	0.0	0.9864773337754716	-0.4368295889078384	0.0	0.9936140064768989	-0.4033677729948289	0.0
107	3.589240506329114	0.9583319843711814	-0.5870385761252527	0.0	0.9587710560209738	-0.5848482788868133	0.0	0.9514377988726023	-0.688545397637727	0.0	0.9370519224733117	-0.7844050521235364	0.0	0.9752393974844493	-0.804395740410505	0.0	0.966450854330094	-0.8065597178232644	0.0	0.9306395979585205	-0.7991273988047896	0.0	0.9591142306029209	-0.5834031809031252	0.0	0.9523169947262309	-0.6881425728297095	0.0	0.9407662439458783	-0.7791622776547	0.0	0.9764376073025286	-0.7990352401512439	0.0	0.970838057452618	-0.7962956400560364	0.0	0.9309942626237014	-0.7897882999114348	0.0	0.958226750928638	-0.45570349759852385	0.0	0.9602470410840757	-0.3905322637983027	0.0	0.9798683207573122	-0.4231713098409434	0.0	0.9566764755259429	-0.46803575644118156	0.0	0.9978378384232978	-0.45059404710175704	0.0	1.008319062342415	-0.42771334351560375	0.0	0.9539946869646603	-0.4643965775869536	0.0	0.9893231451274439	-0.4471426356617187	0.0	0.9975951585714559	-0.42600421563356183	0.0
108	3.622784810126582	0.9581320568084274	-0.5815884484589686	0.0	0.9585834905117673	-0.5793288091323978	0.0	0.9510625592118992	-0.6831521478407772	0.0	0.9369877657578587	-0.7791176693732768	0.0	0.9765954332065089	-0.7991368615709581	0.0	0.9673594703699587	-0.8009983420057329	0.0	0.9310657923968371	-0.7936617211012436	0.0	0.9590908749074536	-0.5779104578982508	0.0	0.9522690501650286	-0.6827610396218295	0.0	0.941208027194796	-0.7737428640966348	0.0	0.97826370566432	-0.7937696018993533	0.0	0.9726605148181137	-0.7910645932363255	0.0	0.9321657053767675	-0.7844917458056486	0.0	0.9594543646756791	-0.4494161640123323	0.0	0.9624293148323549	-0.38390743210587286	0.0	0.9831409922975466	-0.41758793444049425	0.0	0.9571769727324645	-0.4632194796546484	0.0	0.9990824649542109	-0.46384970067618664	0.0	1.0104275265884521	-0.4553246715891534	0.0	0.954264408761698	-0.46021831287753673	0.0	0.9898784192965361	-0.4594470499590832	0.0	0.9997980644879458	-0.4529109157412383	0.0
109	3.6563291139240506	0.9578881305434587	-0.5764678985794552	0.0	0.9585360300103402	-0.5744358793383432	0.0	0.9509164151654623	-0.6778420074627034	0.0	0.937055757830113	-0.7739241537751576	0.0	0.9772154736751741	-0.7939067109631159	0.0	0.9672766970669692	-0.795706518292193	0.0	0.9314292109651952	-0.7883093705735024	0.0	0.9587383061802836	-0.5729256547044459	0.0	0.9523466644885967	-0.6774117316340887	0.0	0.9416766270117971	-0.768219626101348	0.0	0.9798566178755828	-0.7885806832307357	0.0	0.9743426218901557	-0.7857107428756571	0.0	0.9333190310787306	-0.7791080960074894	0.0	0.9604699031375782	-0.4430366423117533	0.0	0.9640588353087706	-0.37740105840028887	0.0	0.985509866043279	-0.41162398012689827	0.0	0.9574814090143468	-0.45841409349863277	0.0	0.9961341956890299	-0.4772749583223756	0.0	1.0093948815586102	-0.4847573616690429	0.0	0.954520380817613	-0.4560552066597918	0.0	0.986785392422212	-0.47278156719697045	0.0	0.9994941432080477	-0.48205437454860656	0.0
